<svg xmlns="http://www.w3.org/2000/svg" width="43.865" height="43.865" viewBox="0 0 43.865 43.865">
  <path id="Icon_ionic-ios-arrow-dropdown-circle" data-name="Icon ionic-ios-arrow-dropdown-circle" d="M3.375,25.308A21.933,21.933,0,1,0,25.308,3.375,21.929,21.929,0,0,0,3.375,25.308Zm30.484-4.576a2.043,2.043,0,0,1,2.879,0,2.01,2.01,0,0,1,.59,1.434,2.046,2.046,0,0,1-.6,1.445l-9.943,9.912a2.033,2.033,0,0,1-2.8-.063L13.888,23.4a2.036,2.036,0,1,1,2.879-2.879l8.552,8.636Z" transform="translate(-3.375 -3.375)" fill="#3d89f5"/>
</svg>
