<svg xmlns="http://www.w3.org/2000/svg" width="13.12" height="13.117" viewBox="0 0 13.12 13.117">
  <path id="Icon_awesome-instagram" data-name="Icon awesome-instagram" d="M6.556,5.433A3.363,3.363,0,1,0,9.919,8.8,3.358,3.358,0,0,0,6.556,5.433Zm0,5.549A2.186,2.186,0,1,1,8.743,8.8a2.19,2.19,0,0,1-2.186,2.186ZM10.841,5.3a.784.784,0,1,1-.784-.784A.783.783,0,0,1,10.841,5.3Zm2.227.8a3.882,3.882,0,0,0-1.06-2.748,3.907,3.907,0,0,0-2.748-1.06c-1.083-.061-4.329-.061-5.412,0A3.9,3.9,0,0,0,1.1,3.34,3.9,3.9,0,0,0,.041,6.089c-.061,1.083-.061,4.329,0,5.412A3.882,3.882,0,0,0,1.1,14.249a3.912,3.912,0,0,0,2.748,1.06c1.083.061,4.329.061,5.412,0a3.882,3.882,0,0,0,2.748-1.06,3.907,3.907,0,0,0,1.06-2.748c.061-1.083.061-4.326,0-5.409Zm-1.4,6.571a2.214,2.214,0,0,1-1.247,1.247,14.456,14.456,0,0,1-3.867.263A14.569,14.569,0,0,1,2.69,13.91a2.214,2.214,0,0,1-1.247-1.247A14.456,14.456,0,0,1,1.179,8.8,14.569,14.569,0,0,1,1.443,4.93,2.214,2.214,0,0,1,2.69,3.683a14.456,14.456,0,0,1,3.867-.263,14.569,14.569,0,0,1,3.867.263A2.214,2.214,0,0,1,11.67,4.93,14.456,14.456,0,0,1,11.933,8.8,14.447,14.447,0,0,1,11.67,12.663Z" transform="translate(0.005 -2.238)" fill="#3d89f5"/>
</svg>
