<svg xmlns="http://www.w3.org/2000/svg" width="15.556" height="15.556" viewBox="0 0 15.556 15.556">
  <path id="Icon_awesome-linkedin-in" data-name="Icon awesome-linkedin-in" d="M3.482,15.556H.257V5.171H3.482ZM1.868,3.754A1.877,1.877,0,1,1,3.736,1.868,1.884,1.884,0,0,1,1.868,3.754Zm13.685,11.8H12.334V10.5c0-1.2-.024-2.75-1.677-2.75-1.677,0-1.934,1.309-1.934,2.663v5.143H5.5V5.171H8.6V6.587h.045A3.389,3.389,0,0,1,11.692,4.91c3.264,0,3.864,2.149,3.864,4.941v5.705Z" transform="translate(0 -0.001)" fill="#fff"/>
</svg>
