<svg xmlns="http://www.w3.org/2000/svg" width="15.217" height="12.573" viewBox="0 0 15.217 12.573">
  <g id="Icon_feather-mail" data-name="Icon feather-mail" transform="translate(1 1)">
    <g id="Path_8" data-name="Path 8" transform="translate(-3 -6)" fill="none" stroke-linecap="round" stroke-linejoin="round">
      <path d="M4.322,6H14.9a1.326,1.326,0,0,1,1.322,1.322v7.93A1.326,1.326,0,0,1,14.9,16.573H4.322A1.326,1.326,0,0,1,3,15.252V7.322A1.326,1.326,0,0,1,4.322,6Z" stroke="none"/>
      <path d="M 4.321682929992676 5.999998092651367 C 3.594752311706543 5.999998092651367 3.000001907348633 6.594748497009277 3.000001907348633 7.32166862487793 L 3.000001907348633 15.25168800354004 C 3.000001907348633 15.97860813140869 3.594752311706543 16.5733585357666 4.321682929992676 16.5733585357666 L 14.89514255523682 16.5733585357666 C 15.62207221984863 16.5733585357666 16.21682357788086 15.97860813140869 16.21682357788086 15.25168800354004 L 16.21682357788086 7.32166862487793 C 16.21682357788086 6.594748497009277 15.62207221984863 5.999998092651367 14.89514255523682 5.999998092651367 L 4.321682929992676 5.999998092651367 M 4.321682929992676 4.999998092651367 L 14.89514255523682 4.999998092651367 C 16.17532348632812 4.999998092651367 17.21682357788086 6.041498184204102 17.21682357788086 7.32166862487793 L 17.21682357788086 15.25168800354004 C 17.21682357788086 16.53185844421387 16.17532348632812 17.5733585357666 14.89514255523682 17.5733585357666 L 4.321682929992676 17.5733585357666 C 3.041501998901367 17.5733585357666 2.000001907348633 16.53185844421387 2.000001907348633 15.25168800354004 L 2.000001907348633 7.32166862487793 C 2.000001907348633 6.041498184204102 3.041501998901367 4.999998092651367 4.321682929992676 4.999998092651367 Z" stroke="none" fill="#3d89f5"/>
    </g>
    <path id="Path_9" data-name="Path 9" d="M16.217,9,9.608,13.626,3,9" transform="translate(-3 -7.678)" fill="none" stroke="#3d89f5" stroke-linecap="round" stroke-linejoin="round" stroke-width="1"/>
  </g>
</svg>
