<svg xmlns="http://www.w3.org/2000/svg" width="30" height="30" viewBox="0 0 30 30">
  <path id="Icon_awesome-paint-roller" data-name="Icon awesome-paint-roller" d="M24.375,7.5V1.875A1.875,1.875,0,0,0,22.5,0H1.875A1.875,1.875,0,0,0,0,1.875V7.5A1.875,1.875,0,0,0,1.875,9.375H22.5A1.875,1.875,0,0,0,24.375,7.5ZM26.25,3.75v7.5a1.875,1.875,0,0,1-1.875,1.875H15a3.75,3.75,0,0,0-3.75,3.75V18.75a1.875,1.875,0,0,0-1.875,1.875v7.5A1.875,1.875,0,0,0,11.25,30H15a1.875,1.875,0,0,0,1.875-1.875v-7.5A1.875,1.875,0,0,0,15,18.75V16.875h9.375A5.625,5.625,0,0,0,30,11.25V7.5A3.75,3.75,0,0,0,26.25,3.75Z" fill="#3d89f5"/>
</svg>
