<svg xmlns="http://www.w3.org/2000/svg" width="24.626" height="38" viewBox="0 0 24.626 38">
  <g id="Group_22" data-name="Group 22" transform="translate(-1247 -3807)">
    <path id="Icon_material-phone-iphone" data-name="Icon material-phone-iphone" d="M23.25,1.5h-12A3.751,3.751,0,0,0,7.5,5.25v25.5a3.751,3.751,0,0,0,3.75,3.75h12A3.751,3.751,0,0,0,27,30.75V5.25A3.751,3.751,0,0,0,23.25,1.5ZM24,30.75H10.5V5.25H24Z" transform="translate(1239.5 3805.5)" fill="#3d89f5"/>
    <g id="Icon_awesome-hand-pointer" data-name="Icon awesome-hand-pointer" transform="translate(1251.75 3822.57)" fill="#3d89f5">
      <path d="M 15.00304889678955 21.42968368530273 L 6.703488349914551 21.42968368530273 C 5.875778675079346 21.42968368530273 5.090938568115234 21.03005409240723 4.604018688201904 20.36068344116211 L -0.5033714175224304 13.3378438949585 C -1.345291495323181 12.18015384674072 -1.088431477546692 10.5533332824707 0.06919855624437332 9.711403846740723 C 0.5159685611724854 9.386484146118164 1.04352855682373 9.214754104614258 1.59484851360321 9.214754104614258 C 2.160343647003174 9.214754104614258 2.705671072006226 9.400915145874023 3.149778604507446 9.732001304626465 L 3.149778604507446 1.596073746681213 C 3.149778604507446 0.1645937561988831 4.314368724822998 -0.9999962449073792 5.745848655700684 -0.9999962449073792 C 7.177328586578369 -0.9999962449073792 8.3419189453125 0.1645937561988831 8.3419189453125 1.596073746681213 L 8.3419189453125 5.55084228515625 C 8.626663208007812 5.443230628967285 8.935237884521484 5.384273529052734 9.257198333740234 5.384273529052734 C 10.11491584777832 5.384273529052734 10.87685108184814 5.802434921264648 11.34981918334961 6.445543766021729 C 11.7578706741333 6.178249359130859 12.24537372589111 6.022703647613525 12.7685489654541 6.022703647613525 C 13.7239465713501 6.022703647613525 14.56040668487549 6.541382789611816 15.01114559173584 7.312026023864746 C 15.38653755187988 7.100844383239746 15.81937789916992 6.980343818664551 16.27990913391113 6.980343818664551 C 17.71138763427734 6.980343818664551 18.87597846984863 8.144933700561523 18.87597846984863 9.576414108276367 L 18.87597846984863 13.40698337554932 C 18.87597846984863 13.60705375671387 18.85275840759277 13.80714416503906 18.80694770812988 14.00171375274658 L 17.53012847900391 19.4282341003418 C 17.25285911560059 20.60665321350098 16.21368789672852 21.42968368530273 15.00304889678955 21.42968368530273 Z" stroke="none"/>
      <path d="M 5.745848655700684 3.814697265625e-06 C 4.864338874816895 3.814697265625e-06 4.149778366088867 0.7146034240722656 4.149778366088867 1.596073150634766 L 4.149778366088867 12.60862350463867 L 2.886968612670898 10.87218379974365 C 2.3685302734375 10.15930366516113 1.370309829711914 10.00165271759033 0.657379150390625 10.52013397216797 C -0.05546188354492188 11.03857421875 -0.2130813598632812 12.03679370880127 0.3053684234619141 12.74968338012695 L 5.412698745727539 19.77242279052734 C 5.713078498840332 20.18537330627441 6.192898750305176 20.42968368530273 6.703488349914551 20.42968368530273 L 15.00304889678955 20.42968368530273 C 15.74370861053467 20.42968368530273 16.3870792388916 19.92014312744141 16.55669784545898 19.19919395446777 L 17.83355903625488 13.77256393432617 C 17.86176872253418 13.65273380279541 17.87597846984863 13.53003311157227 17.87597846984863 13.40698432922363 L 17.87597846984863 9.576414108276367 C 17.87597846984863 8.694943428039551 17.16141891479492 7.980343818664551 16.27990913391113 7.980343818664551 C 15.39839839935303 7.980343818664551 14.68383884429932 8.694943428039551 14.68383884429932 9.576414108276367 L 14.3646183013916 9.576414108276367 L 14.3646183013916 8.618773460388184 C 14.3646183013916 7.737303733825684 13.65005874633789 7.022704124450684 12.7685489654541 7.022704124450684 C 11.88704872131348 7.022704124450684 11.17247867584229 7.737303733825684 11.17247867584229 8.618773460388184 L 11.17247867584229 9.576414108276367 L 10.85326862335205 9.576414108276367 L 10.85326862335205 7.980343818664551 C 10.85326862335205 7.098874092102051 10.13870811462402 6.384273529052734 9.257198333740234 6.384273529052734 C 8.375688552856445 6.384273529052734 7.661128997802734 7.098874092102051 7.661128997802734 7.980343818664551 L 7.661128997802734 9.576414108276367 L 7.3419189453125 9.576414108276367 L 7.3419189453125 1.596073150634766 C 7.3419189453125 0.7146034240722656 6.627358436584473 3.814697265625e-06 5.745848655700684 3.814697265625e-06 M 5.745848655700684 -1.999996185302734 C 7.728728294372559 -1.999996185302734 9.3419189453125 -0.3868064880371094 9.3419189453125 1.596073150634766 L 9.3419189453125 4.385257720947266 C 10.18868827819824 4.404935836791992 10.96398830413818 4.718720436096191 11.56944942474365 5.228252410888672 C 11.94461250305176 5.095197677612305 12.34834861755371 5.022704124450684 12.7685489654541 5.022704124450684 C 13.77426910400391 5.022704124450684 14.68486976623535 5.437687873840332 15.33813095092773 6.105435371398926 C 15.63845443725586 6.023850440979004 15.95410823822021 5.980343818664551 16.27990913391113 5.980343818664551 C 18.26278877258301 5.980343818664551 19.87597846984863 7.593533515930176 19.87597846984863 9.576414108276367 L 19.87597846984863 13.40698432922363 C 19.87597846984863 13.68410396575928 19.84379959106445 13.96129417419434 19.78033828735352 14.23087310791016 L 18.5035285949707 19.65727424621582 C 18.11948776245117 21.28961372375488 16.68002891540527 22.42968368530273 15.00304889678955 22.42968368530273 L 6.703488349914551 22.42968368530273 C 5.556948661804199 22.42968368530273 4.469788551330566 21.87612342834473 3.795328140258789 20.94890403747559 L -1.312122344970703 13.9260139465332 C -2.478351593017578 12.32238388061523 -2.122550964355469 10.06893348693848 -0.51898193359375 8.902673721313477 C 0.09982872009277344 8.452643394470215 0.8307380676269531 8.214774131774902 1.594789505004883 8.214754104614258 C 1.781916618347168 8.21474552154541 1.967358589172363 8.229450225830078 2.149778366088867 8.258116722106934 L 2.149778366088867 1.596073150634766 C 2.149778366088867 -0.3868064880371094 3.762969017028809 -1.999996185302734 5.745848655700684 -1.999996185302734 Z" stroke="none" fill="#fff"/>
    </g>
  </g>
</svg>
